{
  "accessors": [
    {
      "bufferView": 1,
      "componentType": 5126,
      "count": 5778,
      "max": [
        3.243703603744507,
        0.5281294584274292,
        1.453361988067627
      ],
      "min": [
        -3.899738311767578,
        -0.5932246446609497,
        -1.5397402048110962
      ],
      "type": "VEC3"
    },
    {
      "bufferView": 1,
      "byteOffset": 69336,
      "componentType": 5126,
      "count": 5778,
      "max": [
        1.0,
        1.0,
        1.0
      ],
      "min": [
        -1.0,
        -1.0,
        -1.0
      ],
      "type": "VEC3"
    },
    {
      "bufferView": 0,
      "componentType": 5125,
      "count": 57600,
      "type": "SCALAR"
    },
    {
      "bufferView": 1,
      "byteOffset": 138672,
      "componentType": 5126,
      "count": 6420,
      "max": [
        3.243703603744507,
        0.22339239716529846,
        1.453361988067627
      ],
      "min": [
        -3.899738311767578,
        -0.5932246446609497,
        -1.62778639793396
      ],
      "type": "VEC3"
    },
    {
      "bufferView": 1,
      "byteOffset": 215712,
      "componentType": 5126,
      "count": 6420,
      "max": [
        1.0,
        1.0,
        1.0
      ],
      "min": [
        -1.0,
        -1.0,
        -1.0
      ],
      "type": "VEC3"
    },
    {
      "bufferView": 0,
      "byteOffset": 230400,
      "componentType": 5125,
      "count": 57600,
      "type": "SCALAR"
    },
    {
      "bufferView": 1,
      "byteOffset": 292752,
      "componentType": 5126,
      "count": 9138,
      "max": [
        3.640995740890503,
        0.9459642171859741,
        1.5222874879837036
      ],
      "min": [
        -4.139238357543945,
        -0.7008583545684814,
        -1.9242936372756958
      ],
      "type": "VEC3"
    },
    {
      "bufferView": 1,
      "byteOffset": 402408,
      "componentType": 5126,
      "count": 9138,
      "max": [
        1.0,
        1.0,
        1.0
      ],
      "min": [
        -1.0,
        -1.0,
        -1.0
      ],
      "type": "VEC3"
    },
    {
      "bufferView": 0,
      "byteOffset": 460800,
      "componentType": 5125,
      "count": 56136,
      "type": "SCALAR"
    },
    {
      "bufferView": 1,
      "byteOffset": 512064,
      "componentType": 5126,
      "count": 5076,
      "max": [
        3.483203411102295,
        0.7676295042037964,
        1.745759129524231
      ],
      "min": [
        -4.073659420013428,
        -1.0093913078308105,
        -1.5398485660552979
      ],
      "type": "VEC3"
    },
    {
      "bufferView": 1,
      "byteOffset": 572976,
      "componentType": 5126,
      "count": 5076,
      "max": [
        1.0,
        1.0,
        1.0
      ],
      "min": [
        -1.0,
        -1.0,
        -1.0
      ],
      "type": "VEC3"
    },
    {
      "bufferView": 0,
      "byteOffset": 685344,
      "componentType": 5125,
      "count": 26712,
      "type": "SCALAR"
    },
    {
      "bufferView": 1,
      "byteOffset": 633888,
      "componentType": 5126,
      "count": 9630,
      "max": [
        0.746541440486908,
        1.7030771970748901,
        2.371065139770508
      ],
      "min": [
        -4.461467266082764,
        -1.7492804527282715,
        -2.263423442840576
      ],
      "type": "VEC3"
    },
    {
      "bufferView": 1,
      "byteOffset": 749448,
      "componentType": 5126,
      "count": 9630,
      "max": [
        1.0,
        1.0,
        1.0
      ],
      "min": [
        -1.0,
        -1.0,
        -1.0
      ],
      "type": "VEC3"
    },
    {
      "bufferView": 0,
      "byteOffset": 792192,
      "componentType": 5125,
      "count": 57600,
      "type": "SCALAR"
    },
    {
      "bufferView": 1,
      "byteOffset": 865008,
      "componentType": 5126,
      "count": 9498,
      "max": [
        4.290799617767334,
        1.4825639724731445,
        2.2695651054382324
      ],
      "min": [
        -4.34425687789917,
        -1.6477805376052856,
        -2.4491000175476074
      ],
      "type": "VEC3"
    },
    {
      "bufferView": 1,
      "byteOffset": 978984,
      "componentType": 5126,
      "count": 9498,
      "max": [
        1.0,
        1.0,
        1.0
      ],
      "min": [
        -1.0,
        -1.0,
        -1.0
      ],
      "type": "VEC3"
    },
    {
      "bufferView": 0,
      "byteOffset": 1022592,
      "componentType": 5125,
      "count": 53376,
      "type": "SCALAR"
    },
    {
      "bufferView": 1,
      "byteOffset": 1092960,
      "componentType": 5126,
      "count": 2568,
      "max": [
        2.419461488723755,
        1.0567175149917603,
        -1.479273796081543
      ],
      "min": [
        -2.4210216999053955,
        -1.1863752603530884,
        -2.550600051879883
      ],
      "type": "VEC3"
    },
    {
      "bufferView": 1,
      "byteOffset": 1123776,
      "componentType": 5126,
      "count": 2568,
      "max": [
        1.0,
        1.0,
        1.0
      ],
      "min": [
        -1.0,
        -1.0,
        -1.0
      ],
      "type": "VEC3"
    },
    {
      "bufferView": 0,
      "byteOffset": 1236096,
      "componentType": 5125,
      "count": 15360,
      "type": "SCALAR"
    }
  ],
  "asset": {
    "extras": {
      "author": "Shane Wilkinson (https://sketchfab.com/swil0487)",
      "license": "CC-BY-4.0 (http://creativecommons.org/licenses/by/4.0/)",
      "source": "https://sketchfab.com/3d-models/s-limonene-or-l-limonene-or-limonene-483067cd5a92425e91c19095db581171",
      "title": "S-Limonene or L-limonene or (-)-limonene"
    },
    "generator": "Sketchfab-15.31.0",
    "version": "2.0"
  },
  "bufferViews": [
    {
      "buffer": 0,
      "byteLength": 1297536,
      "name": "floatBufferViews",
      "target": 34963
    },
    {
      "buffer": 0,
      "byteLength": 1154592,
      "byteOffset": 1297536,
      "byteStride": 12,
      "name": "floatBufferViews",
      "target": 34962
    }
  ],
  "buffers": [
    {
      "byteLength": 2452128,
      "uri": "scene.bin"
    }
  ],
  "materials": [
    {
      "doubleSided": true,
      "name": "k909090",
      "pbrMetallicRoughness": {
        "baseColorFactor": [
          0.566,
          0.566,
          0.566,
          1.0
        ],
        "metallicFactor": 0.0,
        "roughnessFactor": 0.9106721441304432
      }
    },
    {
      "doubleSided": true,
      "name": "kffffff",
      "pbrMetallicRoughness": {
        "metallicFactor": 0.0,
        "roughnessFactor": 0.9106721441304432
      }
    }
  ],
  "meshes": [
    {
      "name": "Object_0",
      "primitives": [
        {
          "attributes": {
            "NORMAL": 1,
            "POSITION": 0
          },
          "indices": 2,
          "material": 0,
          "mode": 4
        }
      ]
    },
    {
      "name": "Object_1",
      "primitives": [
        {
          "attributes": {
            "NORMAL": 4,
            "POSITION": 3
          },
          "indices": 5,
          "material": 0,
          "mode": 4
        }
      ]
    },
    {
      "name": "Object_2",
      "primitives": [
        {
          "attributes": {
            "NORMAL": 7,
            "POSITION": 6
          },
          "indices": 8,
          "material": 0,
          "mode": 4
        }
      ]
    },
    {
      "name": "Object_3",
      "primitives": [
        {
          "attributes": {
            "NORMAL": 10,
            "POSITION": 9
          },
          "indices": 11,
          "material": 0,
          "mode": 4
        }
      ]
    },
    {
      "name": "Object_4",
      "primitives": [
        {
          "attributes": {
            "NORMAL": 13,
            "POSITION": 12
          },
          "indices": 14,
          "material": 1,
          "mode": 4
        }
      ]
    },
    {
      "name": "Object_5",
      "primitives": [
        {
          "attributes": {
            "NORMAL": 16,
            "POSITION": 15
          },
          "indices": 17,
          "material": 1,
          "mode": 4
        }
      ]
    },
    {
      "name": "Object_6",
      "primitives": [
        {
          "attributes": {
            "NORMAL": 19,
            "POSITION": 18
          },
          "indices": 20,
          "material": 1,
          "mode": 4
        }
      ]
    }
  ],
  "nodes": [
    {
      "children": [
        1
      ],
      "matrix": [
        0.8976011276245117,
        -0.26704359054565435,
        0.3507134616374969,
        0.0,
        0.21444769203662872,
        0.9596554040908813,
        0.18186169862747215,
        0.0,
        -0.38512906432151794,
        -0.08802957832813284,
        0.9186546802520752,
        0.0,
        0.0,
        0.0,
        0.0,
        1.0
      ],
      "name": "Sketchfab_model"
    },
    {
      "children": [
        2,
        3,
        4,
        5,
        6,
        7,
        8
      ],
      "name": "s_limonene.obj.cleaner.materialmerger.gles"
    },
    {
      "mesh": 0,
      "name": "Object_2"
    },
    {
      "mesh": 1,
      "name": "Object_3"
    },
    {
      "mesh": 2,
      "name": "Object_4"
    },
    {
      "mesh": 3,
      "name": "Object_5"
    },
    {
      "mesh": 4,
      "name": "Object_6"
    },
    {
      "mesh": 5,
      "name": "Object_7"
    },
    {
      "mesh": 6,
      "name": "Object_8"
    }
  ],
  "scene": 0,
  "scenes": [
    {
      "name": "Sketchfab_Scene",
      "nodes": [
        0
      ]
    }
  ]
}
